<?xml version="1.0" standalone="no"?>
<!DOCTYPE svg PUBLIC "-//W3C//DTD SVG 20010904//EN"
 "http://www.w3.org/TR/2001/REC-SVG-20010904/DTD/svg10.dtd">
<svg version="1.0" xmlns="http://www.w3.org/2000/svg"
 width="700.000000pt" height="700.000000pt" viewBox="0 0 700.000000 700.000000"
 preserveAspectRatio="xMidYMid meet">
<metadata>
Created by potrace 1.11, written by Peter Selinger 2001-2013
</metadata>
<g transform="translate(0.000000,700.000000) scale(0.100000,-0.100000)"
fill="#000000" stroke="none">
<path d="M6334 5572 c-71 -59 -148 -121 -170 -138 -126 -102 -370 -299 -374
-304 -3 -3 -61 -50 -130 -105 -69 -54 -186 -149 -260 -209 -75 -61 -154 -125
-175 -143 -171 -135 -321 -257 -325 -262 -3 -3 -30 -25 -60 -48 -30 -23 -64
-50 -75 -60 -11 -10 -36 -30 -57 -45 -20 -15 -42 -33 -50 -40 -7 -7 -101 -84
-208 -170 -107 -86 -271 -219 -365 -294 -93 -76 -237 -192 -320 -259 -173
-140 -825 -666 -840 -677 -5 -5 -23 -20 -40 -34 -16 -13 -55 -44 -85 -67 -30
-23 -59 -47 -65 -53 -5 -6 -32 -28 -60 -50 -27 -21 -52 -41 -55 -44 -3 -3 -48
-39 -100 -80 -52 -41 -98 -78 -101 -83 -3 -4 -20 -18 -37 -30 -17 -12 -86 -67
-154 -123 -68 -55 -184 -149 -258 -209 -74 -59 -149 -120 -166 -134 -17 -14
-40 -33 -50 -41 -60 -46 -172 -138 -193 -157 -14 -12 -27 -21 -29 -18 -2 2 14
41 36 87 86 182 178 465 207 638 3 19 8 42 10 50 2 8 7 38 10 65 4 28 8 57 10
65 20 78 28 567 11 700 -4 36 -10 83 -12 105 -3 22 -7 51 -9 65 -2 14 -7 45
-10 70 -48 337 -200 796 -383 1157 -64 126 -58 124 -128 51 -142 -150 -250
-307 -352 -513 -66 -133 -127 -279 -137 -325 -2 -8 -11 -35 -20 -60 -20 -57
-63 -222 -86 -330 -40 -190 -54 -344 -54 -590 0 -249 11 -352 56 -549 78 -336
261 -648 476 -812 32 -24 60 -47 63 -50 3 -3 37 -25 77 -47 246 -143 535 -198
883 -168 106 9 100 8 260 36 259 46 602 168 990 353 329 156 919 517 1234 754
92 71 298 237 337 273 8 8 51 47 95 85 183 162 475 467 613 640 31 39 62 76
69 84 7 7 64 81 126 165 127 170 230 321 326 480 36 59 82 135 103 168 129
204 207 416 236 638 9 72 8 332 -3 376 -2 12 -7 39 -10 60 -8 51 -55 224 -67
247 -5 9 -13 17 -17 17 -4 0 -66 -49 -138 -108z"/>
</g>
</svg>
